<?xml version="1.0" encoding="UTF-8" standalone="no"?><!DOCTYPE svg PUBLIC "-//W3C//DTD SVG 1.1//EN" "http://www.w3.org/Graphics/SVG/1.1/DTD/svg11.dtd"><svg width="100%" height="100%" viewBox="0 0 800 800" version="1.1" xmlns="http://www.w3.org/2000/svg" xmlns:xlink="http://www.w3.org/1999/xlink" xml:space="preserve" xmlns:serif="http://www.serif.com/" style="fill:white;fill-rule:evenodd;clip-rule:evenodd;stroke-linejoin:round;stroke-miterlimit:2;"><g><path d="M1,103.2c0,0.7 1.7,2.8 9.1,11.3c1.5,1.6 14.7,17.2 29.4,34.5c14.7,17.3 27.7,32.6 28.8,34c1.2,1.4 4.7,5.4 7.7,9c3,3.6 6.5,7.6 7.6,9c1.2,1.4 7.7,9 14.5,17c6.8,8 12.6,14.7 12.9,15c0.3,0.3 2.5,3 5,6c2.5,3 5.7,6.8 7.1,8.5c3.5,4 21.2,24.7 26.9,31.5c2.5,3 5.9,7 7.6,9c1.7,1.9 4,4.6 5.2,6c5.1,6.2 16.6,19.5 17.2,20c0.3,0.3 1.3,1.4 2.1,2.6c0.8,1.1 3.7,4.7 6.6,8c2.8,3.2 9.5,11.1 14.9,17.4c5.4,6.3 10.2,12 10.8,12.6c0.6,0.6 2.5,2.8 4.1,4.9c1.7,2.1 3.5,4.3 4,4.9c0.6,0.6 6.2,7.2 12.5,14.6c6.3,7.4 12.1,14.2 12.9,15.1c0.9,0.9 2.4,2.7 3.5,4c2.2,2.9 11.8,14.2 12.6,14.9c0.3,0.3 4.1,4.8 8.5,10c4.4,5.2 8.2,9.7 8.5,10c0.3,0.3 2.7,3.2 5.4,6.5c2.7,3.3 5.4,6.4 6,7c0.6,0.5 3.1,3.5 5.6,6.5c2.5,3 10.1,12 17,20c6.9,8.1 14.5,17.1 17,20c2.5,3 7.4,8.8 11,13c3.6,4.2 8.5,10 11,13c2.5,2.9 5.9,6.9 7.6,8.9c4.6,5.3 31.6,37 58.4,68.6c8.4,9.9 16.4,19.4 17.9,21c1.4,1.7 4.8,5.7 7.6,9c2.7,3.3 5.2,6.2 5.5,6.5c0.3,0.3 2.8,3.2 5.5,6.5c2.8,3.3 5.2,6.2 5.5,6.5c0.3,0.3 5.5,6.3 11.5,13.5c18.6,22 22.7,26.3 29.2,30.1c4.8,2.9 13.6,6.1 19,7.1c5.2,0.8 277.3,1 277.3,0.1c0,-0.7 -1.4,-2.3 -9.1,-11.3c-3.2,-3.7 -16.3,-19.1 -19.1,-22.5c-1.2,-1.4 -5.8,-6.8 -10.3,-12c-4.5,-5.2 -14.4,-16.9 -22.1,-26c-7.6,-9.1 -15.1,-17.8 -16.5,-19.5c-1.5,-1.6 -9.5,-11.1 -17.9,-21c-8.4,-9.9 -17.2,-20.3 -19.5,-23c-2.4,-2.8 -11.2,-13.1 -19.6,-23c-34.9,-41 -44,-51.6 -54.4,-64c-6,-7.2 -11.4,-13.5 -12,-14.1c-0.5,-0.6 -6.8,-8 -14,-16.4c-17.1,-20.2 -32.2,-37.9 -34.9,-41c-1.1,-1.4 -8.4,-9.9 -16.1,-19c-7.6,-9.1 -14.2,-16.7 -14.5,-17c-0.3,-0.3 -2.7,-3.2 -5.4,-6.5c-2.7,-3.3 -5.4,-6.5 -6,-7c-0.7,-0.6 -2.2,-2.4 -3.5,-4c-1.2,-1.7 -3.7,-4.6 -5.4,-6.5c-1.8,-1.9 -5.4,-6.2 -8.2,-9.5c-2.7,-3.3 -5.9,-7.1 -7.2,-8.5c-1.9,-2.2 -7.4,-8.7 -32.2,-38c-2.5,-3 -6.2,-7.2 -8.2,-9.5c-1.9,-2.2 -17.4,-20.4 -34.4,-40.5c-17,-20.1 -32.5,-38.3 -34.4,-40.5c-2,-2.2 -5.6,-6.5 -8.1,-9.4c-2.5,-3 -5,-5.9 -5.5,-6.5c-0.6,-0.6 -4.4,-5.1 -8.5,-10.1c-6.7,-8.1 -11.6,-13.7 -14.5,-16.9c-1.7,-1.8 -21.8,-25.6 -24.5,-29c-5.2,-6.5 -13.2,-13.2 -19.8,-16.5c-11.2,-5.6 -4.7,-5.4 -154.5,-5.5c-75.7,-0.1 -137.7,0.2 -137.7,0.6Z" style="fill-rule:nonzero;"/><path d="M520.6,103.7c-12.1,2 -24.3,9.5 -33,20.2c-1.7,2.1 -12.1,14.3 -23,27.1c-10.9,12.9 -19.9,23.8 -20,24.5c-0.1,1.1 1.5,3.1 19,23.4c4.9,5.8 17.1,20 26.9,31.6c9.8,11.5 20.1,23.7 22.9,26.9c6,7 6.9,7.9 12.2,14.2c2.3,2.7 11.2,13.2 19.9,23.4c21.3,25 23.2,27.3 31.1,36.5c3.8,4.4 8.3,9.7 9.9,11.7c1.7,2 3.5,3.8 4.1,4c0.6,0.2 8.2,-8 16.9,-18.2c8.6,-10.2 16.7,-19.6 17.9,-21c1.1,-1.4 7.1,-8.3 13.1,-15.5c6.1,-7.1 12,-14.1 13.2,-15.5c1.1,-1.4 11.7,-13.8 23.4,-27.5c11.6,-13.8 22.6,-26.6 24.3,-28.5c1.7,-2 5,-5.8 7.3,-8.5c2.3,-2.8 5,-6 6,-7.1c1,-1.2 3.4,-4.1 5.5,-6.5c2,-2.4 4.6,-5.5 5.8,-6.9c1.2,-1.4 2.9,-3.4 3.8,-4.5c0.9,-1.1 6.9,-8.1 13.2,-15.5c6.3,-7.4 12.4,-14.5 13.5,-15.9c1.1,-1.3 3.2,-3.7 4.8,-5.5c10.2,-11.6 12.5,-21 7.8,-31.9c-2.8,-6.4 -6.9,-10.7 -13.1,-13.5l-5.5,-2.5l-110.4,-0.1c-81.2,-0.1 -112.3,0.2 -117.5,1.1Z" style="fill-rule:nonzero;"/><path d="M191.5,472.2c-9.4,11.1 -17.5,20.6 -18,21.2c-0.6,0.6 -9.8,11.4 -20.5,24.1c-10.7,12.6 -23.8,28 -29,34.1c-5.2,6.1 -11.3,13.2 -13.5,15.9c-2.2,2.6 -4.5,5.3 -5,5.9c-0.6,0.6 -3.5,4 -6.5,7.6c-3,3.5 -5.9,6.9 -6.5,7.5c-0.5,0.7 -2.8,3.3 -5,5.9c-2.2,2.7 -4.7,5.6 -5.5,6.6c-15.7,18.3 -40.2,47.1 -44.2,52.1c-4.8,5.8 -7,11.1 -7,16.9c-0.1,10.9 5.1,19.6 14.6,24.4l5.8,3l110.1,0c60.6,0 112.7,-0.3 115.9,-0.7c10.2,-1.2 20.9,-6.3 28.6,-13.7c3.1,-2.9 27.8,-31.6 39.7,-45.9c1.6,-2 4.4,-5.2 6.2,-7.1c1.8,-1.9 3.3,-4.1 3.3,-4.7c-0,-0.7 -3.2,-5 -7.1,-9.5c-14.6,-17 -16.2,-19 -18.3,-21.6c-1.1,-1.5 -2.6,-3.2 -3.2,-3.7c-0.6,-0.6 -4.9,-5.5 -9.5,-11c-4.6,-5.5 -8.8,-10.5 -9.4,-11.1c-0.5,-0.6 -2.9,-3.3 -5.2,-6c-2.2,-2.7 -8.3,-9.9 -13.5,-15.9c-12.8,-15 -12.8,-15 -19.9,-23.5c-3.5,-4.1 -6.8,-8 -7.4,-8.6c-4.7,-5.4 -20,-23.3 -34,-39.9c-6,-7.2 -12,-14.1 -13.2,-15.5c-1.2,-1.4 -3,-3.5 -4,-4.6l-1.9,-2.2l-16.9,20Z" style="fill-rule:nonzero;"/></g></svg>